PathFileType	4	(x/y/z)	S04_M20_T34.trc
DataRate	CameraRate	NumFrames	NumMarkers	Units	OrigDataRate	OrigDataStartFrame	OrigNumFrames
240	240	8	51	mm	240	1	535
Frame#	Time	Sternum			R.Acromium			L.Acromium			Top.Head			R.ASIS			L.ASIS			R.PSIS			L.PSIS			R.Great.Tro			L.Great.Tro			R.Iliac.Crest			L.Iliac.Crest			V.Sacral			R.Thigh.Upper.Post			R.Thigh.Lower.Ant			R.Thigh.Lower.Post			R.Thigh.Upper.Ant			R.Knee.Lat			R.Knee.Med			R.Shank.Upper.Post			R.Shank.Lower.Ant			R.Shank.Lower.Post			R.Shank.Upper.Ant			R.Ankle.Lat			R.Ankle.Med			R.Heel.Upper			R.Heel.Med			R.Heel.Lat			R.Toe.Lat			R.Toe.Med			R.Toe.Tip			L.Thigh.Upper.Post			L.Thigh.Lower.Ant			L.Thigh.Lower.Post			L.Thigh.Upper.Ant			L.Knee.Lat			L.Knee.Med			L.Shank.Upper.Post			L.Shank.Lower.Ant			L.Shank.Lower.Post			L.Shank.Upper.Ant			L.Ankle.Lat			L.Ankle.Med			L.Heel.Upper			L.Heel.Med			L.Heel.Lat			L.Toe.Lat			L.Toe.Med			L.Toe.Tip			Cervical.Spine			Back			
		X1	Y1	Z1	X2	Y2	Z2	X3	Y3	Z3	X4	Y4	Z4	X5	Y5	Z5	X6	Y6	Z6	X7	Y7	Z7	X8	Y8	Z8	X9	Y9	Z9	X10	Y10	Z10	X11	Y11	Z11	X12	Y12	Z12	X13	Y13	Z13	X14	Y14	Z14	X15	Y15	Z15	X16	Y16	Z16	X17	Y17	Z17	X18	Y18	Z18	X19	Y19	Z19	X20	Y20	Z20	X21	Y21	Z21	X22	Y22	Z22	X23	Y23	Z23	X24	Y24	Z24	X25	Y25	Z25	X26	Y26	Z26	X27	Y27	Z27	X28	Y28	Z28	X29	Y29	Z29	X30	Y30	Z30	X31	Y31	Z31	X32	Y32	Z32	X33	Y33	Z33	X34	Y34	Z34	X35	Y35	Z35	X36	Y36	Z36	X37	Y37	Z37	X38	Y38	Z38	X39	Y39	Z39	X40	Y40	Z40	X41	Y41	Z41	X42	Y42	Z42	X43	Y43	Z43	X44	Y44	Z44	X45	Y45	Z45	X46	Y46	Z46	X47	Y47	Z47	X48	Y48	Z48	X49	Y49	Z49	X50	Y50	Z50	X51	Y51	Z51	

1	0	-822.55	1251.3	309.02	-941.47	1485.6	482.09	-953.12	1469.3	133.33	-914.66	1808.9	296.47	-876.7	968.06	460.84	-840.48	980.67	208.4	-1073.4	1020.9	327.76	-1054.9	1021.3	249.9	-987.57	902.5	507.8	-947.57	903.51	125.52	-965.05	1067	490.86	-941.76	1065.6	145.3	-1086.9	980.11	288.57	-1063	658.14	482.01	-1012.4	557.98	450.34	-1087.1	571.99	468.29	-973.83	659.94	475.93	-1088.8	499.62	458.59	-1105.6	503.97	321.74	-1229	304.76	436.36	-1184.7	212.84	393.76	-1248	239.56	415.33	-1168.3	279.1	422.35	-1265.3	126.8	391.17	-1247.3	140.21	302.62	-1339.1	108.53	335.97	-1335.3	76.222	306.42	-1342.1	79.372	370.31	-1173.2	41.84	418.72	-1138.9	38.567	299.11	-1073.6	43.44	345.67	-868.3	665.92	140.86	-752.05	618.01	146.72	-819.35	592.26	157.74	-806.3	688.44	126.9	-739.16	532.06	163.39	-727.44	524.14	293.34	-739.74	334.63	169.58	-640.54	286.69	166.92	-701.1	267.13	177.21	-678.67	352.77	158.63	-582.26	140.29	184.18	-582.63	154.36	276.86	-631.25	70.55	236.06	-611.16	56.312	269.37	-612.78	48.976	208.44	-454.6	139.87	162.7	-431.72	171.19	274.71	-393.1	208.88	224.53	-992.8	1531.6	313.25	-1081.3	1276.4	293.55
2	0.0041667	-817.53	1250.6	308.9	-936.6	1484.9	481.72	-948.06	1468.5	132.94	-909.44	1808.1	295.96	-872	967.29	460.76	-835.3	979.81	208.33	-1068.4	1020.3	327.33	-1049.9	1020.6	249.48	-983.04	901.93	507.56	-942.23	902.82	125.37	-960.15	1066.2	490.6	-936.56	1064.7	145.03	-1081.9	979.45	288.14	-1059.3	657.88	481.81	-1009	557.56	450.35	-1083.7	571.83	468.15	-970.12	659.4	475.9	-1085.7	499.45	458.5	-1102.3	503.83	321.64	-1227.1	305.4	436.35	-1183.3	213.23	393.74	-1246.5	240.36	415.28	-1166.5	279.36	422.33	-1264.6	127.69	391.2	-1246.4	140.99	302.63	-1338.4	109.91	336	-1334.8	77.592	306.43	-1342.1	80.906	370.41	-1173	41.981	418.72	-1138.8	38.626	299.11	-1073.5	43.306	345.61	-863.76	665	140.67	-747.56	616.9	146.81	-814.94	591.27	157.63	-801.61	687.45	126.86	-734.9	530.93	163.35	-723.35	523	293.38	-734.51	333.42	169.71	-635.14	285.99	167.01	-695.41	266.18	177.33	-673.6	351.89	158.64	-575.75	139.96	184.32	-576.2	154.24	276.98	-624.31	69.889	236.4	-603.92	55.822	269.7	-605.74	48.409	208.74	-448.44	140.52	162.41	-425.43	172.16	274.22	-387.34	210.15	223.83	-987.8	1530.9	312.82	-1076.3	1275.6	293.15
3	0.0083333	-812.3	1249.8	308.77	-931.5	1484.1	481.32	-942.78	1467.6	132.53	-904.01	1807.4	295.43	-867.09	966.48	460.66	-829.89	978.93	208.26	-1063.2	1019.6	326.89	-1044.6	1019.9	249.05	-978.3	901.33	507.3	-936.65	902.11	125.22	-955.03	1065.4	490.31	-931.13	1063.8	144.74	-1076.6	978.76	287.69	-1055.4	657.61	481.6	-1005.5	557.13	450.36	-1080.1	571.67	468	-966.23	658.84	475.86	-1082.4	499.27	458.4	-1098.8	503.69	321.53	-1225	306.08	436.33	-1181.9	213.64	393.72	-1244.9	241.2	415.22	-1164.6	279.64	422.31	-1263.8	128.62	391.23	-1245.6	141.81	302.63	-1337.6	111.35	336.03	-1334.3	79.04	306.43	-1342.1	82.508	370.52	-1172.8	42.131	418.72	-1138.6	38.688	299.1	-1073.4	43.17	345.54	-858.99	664.05	140.47	-742.84	615.77	146.9	-810.29	590.25	157.51	-796.69	686.43	126.84	-730.42	529.78	163.31	-719.05	521.83	293.41	-729.12	332.17	169.85	-629.59	285.23	167.09	-689.59	265.18	177.45	-668.36	350.95	158.66	-569.14	139.56	184.46	-569.64	154.04	277.1	-617.27	69.156	236.75	-596.58	55.255	270.04	-598.6	47.767	209.04	-442.15	141.08	162.13	-419.01	173.03	273.74	-381.46	211.32	223.14	-982.59	1530.1	312.36	-1071	1274.8	292.73
4	0.0125	-806.88	1248.9	308.61	-926.21	1483.4	480.92	-937.32	1466.7	132.1	-898.4	1806.5	294.87	-861.99	965.65	460.56	-824.29	978.03	208.19	-1057.8	1018.9	326.42	-1039.1	1019.2	248.6	-973.38	900.71	507.02	-930.88	901.36	125.04	-949.74	1064.6	490.02	-925.53	1062.9	144.44	-1071.2	978.03	287.23	-1051.4	657.33	481.39	-1001.8	556.68	450.35	-1076.4	571.49	467.84	-962.16	658.26	475.81	-1079	499.08	458.29	-1095.2	503.53	321.41	-1222.8	306.79	436.31	-1180.3	214.06	393.7	-1243.2	242.07	415.17	-1162.6	279.93	422.3	-1262.9	129.61	391.25	-1244.7	142.68	302.64	-1336.8	112.87	336.07	-1333.7	80.562	306.44	-1342	84.17	370.62	-1172.6	42.287	418.72	-1138.5	38.754	299.1	-1073.2	43.035	345.48	-854	663.09	140.26	-737.9	614.64	147.01	-805.43	589.21	157.38	-791.56	685.4	126.82	-725.73	528.59	163.27	-714.55	520.62	293.44	-723.61	330.9	169.97	-623.93	284.39	167.18	-683.67	264.14	177.58	-662.98	349.96	158.67	-562.49	139.07	184.62	-563.04	153.75	277.23	-610.22	68.349	237.08	-589.23	54.606	270.37	-591.44	47.043	209.33	-435.82	141.51	161.86	-412.55	173.76	273.29	-375.52	212.34	222.5	-977.18	1529.2	311.89	-1065.6	1273.9	292.29
5	0.016667	-801.3	1248	308.42	-920.76	1482.6	480.49	-931.7	1465.8	131.66	-892.63	1805.7	294.28	-856.72	964.8	460.44	-818.53	977.11	208.11	-1052.2	1018.2	325.95	-1033.4	1018.4	248.14	-968.29	900.06	506.73	-924.94	900.6	124.86	-944.28	1063.8	489.7	-919.79	1061.9	144.14	-1065.6	977.28	286.75	-1047.2	657.03	481.18	-997.9	556.22	450.34	-1072.5	571.31	467.68	-957.95	657.66	475.76	-1075.4	498.88	458.18	-1091.4	503.35	321.29	-1220.5	307.53	436.29	-1178.8	214.51	393.68	-1241.5	242.98	415.12	-1160.6	280.24	422.29	-1262	130.63	391.29	-1243.7	143.58	302.66	-1336	114.45	336.12	-1333.2	82.155	306.45	-1341.8	85.882	370.72	-1172.3	42.45	418.72	-1138.3	38.821	299.09	-1073.1	42.901	345.41	-848.81	662.13	140.06	-732.77	613.5	147.12	-800.36	588.17	157.26	-786.23	684.36	126.82	-720.86	527.4	163.23	-709.87	519.4	293.46	-718.01	329.6	170.09	-618.21	283.49	167.27	-677.72	263.05	177.69	-657.51	348.92	158.68	-555.89	138.5	184.79	-556.48	153.33	277.37	-603.24	67.466	237.42	-581.97	53.869	270.7	-584.35	46.233	209.62	-429.51	141.79	161.62	-406.12	174.31	272.87	-369.57	213.17	221.9	-971.62	1528.4	311.4	-1060.1	1273.1	291.84
6	0.020833	-795.59	1247.2	308.21	-915.17	1481.8	480.05	-925.94	1464.9	131.2	-886.75	1804.9	293.68	-851.31	963.93	460.31	-812.63	976.19	208.03	-1046.5	1017.4	325.46	-1027.6	1017.6	247.68	-963.08	899.39	506.43	-918.86	899.81	124.65	-938.69	1062.9	489.38	-913.92	1060.9	143.83	-1059.8	976.49	286.25	-1042.8	656.73	480.96	-993.91	555.74	450.33	-1068.5	571.11	467.5	-953.61	657.04	475.69	-1071.7	498.66	458.07	-1087.4	503.16	321.17	-1218.1	308.29	436.26	-1177.1	214.97	393.66	-1239.6	243.92	415.08	-1158.4	280.57	422.29	-1261.1	131.7	391.32	-1242.7	144.51	302.69	-1335.1	116.09	336.17	-1332.5	83.815	306.47	-1341.6	87.639	370.82	-1172.1	42.62	418.73	-1138.2	38.89	299.09	-1072.9	42.769	345.35	-843.43	661.16	139.85	-727.45	612.38	147.23	-795.11	587.13	157.13	-780.72	683.33	126.83	-715.8	526.2	163.19	-705.02	518.17	293.46	-712.38	328.31	170.19	-612.48	282.51	167.35	-671.78	261.92	177.8	-651.98	347.83	158.69	-549.4	137.83	184.96	-550.01	152.8	277.51	-596.4	66.506	237.74	-574.86	53.041	271.02	-577.42	45.335	209.91	-423.29	141.89	161.4	-399.78	174.65	272.5	-363.68	213.78	221.36	-965.93	1527.5	310.89	-1054.4	1272.2	291.38
7	0.025	-789.78	1246.3	307.97	-909.46	1481	479.6	-920.07	1464	130.73	-880.77	1804	293.06	-845.79	963.04	460.17	-806.63	975.26	207.95	-1040.7	1016.6	324.96	-1021.7	1016.8	247.2	-957.74	898.71	506.11	-912.66	899.02	124.43	-932.99	1062.1	489.04	-907.96	1059.9	143.52	-1054	975.69	285.75	-1038.4	656.41	480.74	-989.8	555.24	450.3	-1064.4	570.9	467.32	-949.13	656.41	475.62	-1067.9	498.43	457.94	-1083.4	502.95	321.04	-1215.7	309.07	436.22	-1175.4	215.45	393.65	-1237.7	244.89	415.05	-1156.2	280.91	422.29	-1260.1	132.8	391.36	-1241.6	145.47	302.72	-1334.2	117.79	336.24	-1331.9	85.541	306.49	-1341.3	89.431	370.91	-1171.8	42.794	418.74	-1138	38.96	299.09	-1072.8	42.642	345.3	-837.88	660.21	139.64	-721.95	611.27	147.35	-789.7	586.1	157.01	-775.06	682.31	126.86	-710.59	525	163.16	-700.02	516.94	293.45	-706.74	327.01	170.28	-606.77	281.45	167.45	-665.91	260.76	177.9	-646.41	346.69	158.7	-543.08	137.04	185.15	-543.7	152.12	277.67	-589.77	65.471	238.04	-567.99	52.118	271.33	-570.71	44.348	210.18	-417.21	141.78	161.22	-393.58	174.76	272.19	-357.89	214.12	220.9	-960.14	1526.6	310.37	-1048.6	1271.3	290.91
8	0.029167	-783.87	1245.4	307.71	-903.66	1480.1	479.13	-914.12	1463	130.24	-874.72	1803.1	292.42	-840.16	962.15	460.01	-800.53	974.34	207.86	-1034.8	1015.8	324.46	-1015.7	1016	246.72	-952.3	898	505.79	-906.37	898.21	124.19	-927.2	1061.2	488.69	-901.93	1058.9	143.2	-1048	974.86	285.24	-1033.8	656.09	480.51	-985.58	554.74	450.27	-1060.1	570.67	467.12	-944.55	655.76	475.54	-1064	498.19	457.82	-1079.2	502.73	320.91	-1213.2	309.88	436.19	-1173.6	215.95	393.64	-1235.7	245.89	415.02	-1154	281.26	422.3	-1259.1	133.94	391.4	-1240.5	146.46	302.76	-1333.2	119.55	336.31	-1331.2	87.331	306.51	-1340.9	91.255	370.99	-1171.5	42.974	418.75	-1137.9	39.031	299.09	-1072.6	42.519	345.24	-832.18	659.27	139.44	-716.31	610.19	147.48	-784.13	585.09	156.88	-769.26	681.31	126.9	-705.23	523.82	163.12	-694.89	515.71	293.43	-701.12	325.72	170.34	-601.12	280.32	167.54	-660.12	259.57	177.99	-640.84	345.51	158.71	-536.97	136.14	185.34	-537.6	151.3	277.83	-583.41	64.365	238.33	-561.43	51.102	271.62	-564.29	43.274	210.44	-411.32	141.45	161.09	-387.58	174.6	271.95	-352.24	214.17	220.52	-954.25	1525.7	309.85	-1042.7	1270.4	290.44
